<svg width="26" height="26" viewBox="0 0 26 26" fill="none" xmlns="http://www.w3.org/2000/svg">
<mask id="path-1-outside-1_945_10816" maskUnits="userSpaceOnUse" x="0.976562" y="2.94531" width="19" height="19" fill="black">
<rect fill="white" x="0.976562" y="2.94531" width="19" height="19"/>
<path d="M4.70854 3.96168C4.75955 3.96151 4.81056 3.96133 4.86311 3.96116C5.0341 3.96064 5.20508 3.96046 5.37607 3.96028C5.49866 3.95999 5.62125 3.95967 5.74384 3.95935C6.11178 3.95842 6.47971 3.95795 6.84765 3.95753C7.02122 3.95733 7.19479 3.95707 7.36836 3.95683C7.94588 3.95603 8.5234 3.95535 9.10092 3.95501C9.25066 3.95492 9.4004 3.95483 9.55014 3.95474C9.60596 3.95471 9.60596 3.95471 9.66291 3.95467C10.265 3.95428 10.8671 3.9531 11.4691 3.95157C12.0882 3.95002 12.7074 3.94918 13.3265 3.94903C13.6737 3.94893 14.0209 3.94852 14.3681 3.94732C14.664 3.9463 14.9598 3.94593 15.2557 3.94638C15.4064 3.94659 15.557 3.94641 15.7077 3.9456C16.7092 3.94049 17.54 3.99739 18.3075 4.70924C18.8012 5.22598 19.031 5.83438 19.0276 6.54192C19.0277 6.5817 19.0279 6.62148 19.0281 6.66246C19.0286 6.79458 19.0284 6.92669 19.0282 7.05881C19.0284 7.15402 19.0287 7.24923 19.0289 7.34444C19.0296 7.60225 19.0296 7.86007 19.0295 8.11789C19.0294 8.3335 19.0297 8.54911 19.0299 8.76472C19.0304 9.27361 19.0304 9.78251 19.0301 10.2914C19.0299 10.8155 19.0304 11.3396 19.0314 11.8637C19.0323 12.3144 19.0325 12.7652 19.0324 13.216C19.0323 13.4849 19.0324 13.7537 19.0331 14.0226C19.0337 14.2756 19.0336 14.5285 19.033 14.7815C19.0329 14.874 19.033 14.9665 19.0334 15.059C19.0368 15.9454 18.9177 16.6466 18.2849 17.3144C17.6722 17.8945 16.9836 18.0497 16.1618 18.0356C16.0404 18.0344 15.919 18.0332 15.7976 18.032C15.7332 18.0312 15.6688 18.0304 15.6044 18.0296C15.4032 18.0272 15.2021 18.0262 15.001 18.0255C14.9669 18.0253 14.9328 18.0252 14.8976 18.0251C14.8278 18.0248 14.7581 18.0246 14.6883 18.0243C14.2209 18.0226 13.7535 18.0203 13.2862 18.0136C12.9698 18.009 12.6535 18.0069 12.3371 18.0074C12.1702 18.0076 12.0036 18.0066 11.8368 18.0028C11.1226 17.9868 10.5813 17.9942 10.0304 18.4884C9.97189 18.5446 9.91401 18.6014 9.857 18.6591C9.75865 18.7562 9.65129 18.8362 9.53835 18.9155C9.50596 18.9391 9.47357 18.9627 9.44021 18.9871C9.4086 19.01 9.377 19.0329 9.34444 19.0565C9.02611 19.2891 8.71121 19.5258 8.39815 19.7655C8.07295 20.0142 7.74623 20.2607 7.41671 20.5037C7.38039 20.5306 7.34408 20.5574 7.30666 20.585C7.20993 20.6561 7.11284 20.7267 7.01534 20.7967C6.98869 20.8159 6.96203 20.8351 6.93457 20.8548C6.72987 20.9974 6.60692 21.0311 6.35909 21.0311C6.18117 20.9388 6.09524 20.8697 5.98409 20.703C5.97282 20.5846 5.97282 20.5846 5.97345 20.4417C5.97345 20.3882 5.97346 20.3348 5.97347 20.2797C5.97395 20.2219 5.97444 20.1642 5.97493 20.1047C5.97507 20.0456 5.9752 19.9865 5.97534 19.9256C5.97577 19.7687 5.97661 19.6117 5.97765 19.4547C5.97861 19.2945 5.97904 19.1342 5.97951 18.974C5.98055 18.6597 5.98212 18.3454 5.98409 18.0311C5.93308 18.0318 5.88206 18.0325 5.8295 18.0333C5.63766 18.0359 5.44581 18.0375 5.25396 18.0388C5.1714 18.0395 5.08885 18.0405 5.00631 18.0417C4.13031 18.0544 3.37756 17.9359 2.71785 17.3038C2.23551 16.7873 1.99265 16.2731 1.99282 15.5672C1.99264 15.5269 1.99247 15.4865 1.99229 15.445C1.99178 15.3098 1.9916 15.1746 1.99142 15.0394C1.99112 14.9425 1.99081 14.8455 1.99048 14.7486C1.9895 14.4301 1.98901 14.1117 1.98855 13.7933C1.98836 13.6835 1.98816 13.5738 1.98797 13.464C1.98707 12.9482 1.98641 12.4324 1.98602 11.9166C1.98556 11.3219 1.98433 10.7273 1.98243 10.1326C1.98101 9.67256 1.98032 9.21248 1.98017 8.7524C1.98006 8.47784 1.97964 8.20328 1.97846 7.92873C1.97736 7.67017 1.97717 7.41163 1.97765 7.15308C1.97767 7.05855 1.97738 6.96401 1.97673 6.86948C1.97116 6.00486 2.09988 5.33411 2.71749 4.68049C3.28436 4.14336 3.9459 3.96154 4.70854 3.96168ZM3.344 5.55383C2.97406 6.03469 2.99733 6.57626 3.00064 7.15132C3.00032 7.2447 2.9999 7.33808 2.99939 7.43146C2.99833 7.68366 2.99874 7.93583 2.99948 8.18803C3.00008 8.45278 2.99952 8.71752 2.99916 8.98226C2.99873 9.42673 2.99929 9.87119 3.00041 10.3157C3.00168 10.8285 3.00127 11.3413 2.99998 11.8541C2.99892 12.2956 2.99877 12.737 2.99938 13.1784C2.99975 13.4416 2.9998 13.7047 2.99902 13.9679C2.99834 14.2153 2.99882 14.4628 3.00017 14.7103C3.00048 14.8007 3.00039 14.8912 2.99987 14.9817C2.99676 15.5777 3.02148 16.0903 3.44405 16.5545C3.90654 16.9704 4.45557 17.0133 5.05666 17.0126C5.15453 17.0136 5.2524 17.0146 5.35027 17.0156C5.50251 17.0166 5.65475 17.0174 5.80699 17.0177C5.95534 17.0181 6.10364 17.0197 6.25197 17.0214C6.29758 17.0212 6.34318 17.021 6.39017 17.0207C6.7052 17.0253 6.7052 17.0253 6.85504 17.1362C6.95232 17.2795 6.97474 17.3609 6.97809 17.5322C6.97949 17.5956 6.97949 17.5956 6.98092 17.6602C6.98171 17.7058 6.98249 17.7515 6.9833 17.7985C6.98427 17.8452 6.98524 17.8919 6.98625 17.94C6.98932 18.0895 6.99208 18.239 6.99483 18.3885C6.99686 18.4897 6.9989 18.5909 7.00097 18.6921C7.00599 18.9405 7.01076 19.1889 7.01534 19.4373C7.34457 19.2205 7.34457 19.2205 7.66243 18.9876C7.7009 18.9581 7.73937 18.9285 7.779 18.8981C7.81897 18.8672 7.85893 18.8363 7.90011 18.8045C8.32922 18.4753 8.76259 18.1526 9.1989 17.833C9.32032 17.7439 9.44145 17.6543 9.56252 17.5647C9.60348 17.5344 9.64444 17.5041 9.68664 17.4729C9.76555 17.4145 9.84443 17.3561 9.92326 17.2976C9.95854 17.2716 9.99382 17.2455 10.0302 17.2186C10.0613 17.1956 10.0925 17.1725 10.1246 17.1487C10.27 17.0462 10.3628 17.0406 10.5393 17.0399C10.5907 17.0396 10.6422 17.0393 10.6952 17.0389C10.7519 17.0388 10.8086 17.0387 10.867 17.0386C10.9584 17.0381 11.0498 17.0376 11.1412 17.0371C11.2397 17.0366 11.3382 17.0363 11.4366 17.0359C11.6422 17.0352 11.8477 17.0341 12.0532 17.0329C12.6377 17.0296 13.2222 17.0268 13.8068 17.0244C14.1294 17.023 14.4521 17.0214 14.7747 17.0194C14.9786 17.0181 15.1825 17.0173 15.3863 17.0167C15.5439 17.0162 15.7015 17.0151 15.859 17.014C15.9149 17.014 15.9708 17.014 16.0283 17.0139C16.6109 17.0089 17.1067 16.95 17.5536 16.5483C17.8952 16.1802 17.9912 15.7525 17.9907 15.2634C17.9908 15.2256 17.991 15.1879 17.9911 15.149C17.9915 15.0227 17.9916 14.8964 17.9916 14.77C17.9919 14.6794 17.9921 14.5888 17.9923 14.4981C17.993 14.2519 17.9933 14.0057 17.9935 13.7595C17.9936 13.6056 17.9938 13.4517 17.994 13.2977C17.9947 12.8158 17.9951 12.3339 17.9953 11.852C17.9955 11.2963 17.9963 10.7406 17.9977 10.1849C17.9987 9.75496 17.9992 9.32505 17.9992 8.89515C17.9993 8.63856 17.9996 8.38199 18.0004 8.12541C18.0012 7.88386 18.0013 7.64232 18.0009 7.40077C18.0008 7.3124 18.001 7.22403 18.0015 7.13565C18.0105 6.22968 18.0105 6.22968 17.5622 5.46858C17.0878 5.0443 16.5995 4.99258 15.9887 4.99356C15.9399 4.99345 15.8911 4.99335 15.8409 4.99324C15.6781 4.99294 15.5153 4.99298 15.3524 4.99302C15.2355 4.99288 15.1185 4.99272 15.0015 4.99254C14.7171 4.99217 14.4326 4.99202 14.1482 4.992C13.9169 4.99197 13.6855 4.99188 13.4542 4.99173C12.7976 4.99132 12.141 4.9911 11.4843 4.99114C11.4313 4.99114 11.4313 4.99114 11.3772 4.99114C11.3418 4.99114 11.3064 4.99114 11.2699 4.99115C10.6963 4.99117 10.1228 4.99072 9.54918 4.99006C8.95946 4.98938 8.36973 4.98906 7.78001 4.9891C7.44924 4.98912 7.11846 4.98899 6.78769 4.98848C6.47654 4.98801 6.1654 4.98803 5.85426 4.98837C5.74026 4.98841 5.62626 4.9883 5.51226 4.98802C5.35625 4.98766 5.20025 4.98788 5.04423 4.98824C4.99948 4.988 4.95473 4.98776 4.90862 4.98751C4.31343 4.99053 3.7579 5.09139 3.344 5.55383Z"/>
</mask>
<path d="M4.70854 3.96168C4.75955 3.96151 4.81056 3.96133 4.86311 3.96116C5.0341 3.96064 5.20508 3.96046 5.37607 3.96028C5.49866 3.95999 5.62125 3.95967 5.74384 3.95935C6.11178 3.95842 6.47971 3.95795 6.84765 3.95753C7.02122 3.95733 7.19479 3.95707 7.36836 3.95683C7.94588 3.95603 8.5234 3.95535 9.10092 3.95501C9.25066 3.95492 9.4004 3.95483 9.55014 3.95474C9.60596 3.95471 9.60596 3.95471 9.66291 3.95467C10.265 3.95428 10.8671 3.9531 11.4691 3.95157C12.0882 3.95002 12.7074 3.94918 13.3265 3.94903C13.6737 3.94893 14.0209 3.94852 14.3681 3.94732C14.664 3.9463 14.9598 3.94593 15.2557 3.94638C15.4064 3.94659 15.557 3.94641 15.7077 3.9456C16.7092 3.94049 17.54 3.99739 18.3075 4.70924C18.8012 5.22598 19.031 5.83438 19.0276 6.54192C19.0277 6.5817 19.0279 6.62148 19.0281 6.66246C19.0286 6.79458 19.0284 6.92669 19.0282 7.05881C19.0284 7.15402 19.0287 7.24923 19.0289 7.34444C19.0296 7.60225 19.0296 7.86007 19.0295 8.11789C19.0294 8.3335 19.0297 8.54911 19.0299 8.76472C19.0304 9.27361 19.0304 9.78251 19.0301 10.2914C19.0299 10.8155 19.0304 11.3396 19.0314 11.8637C19.0323 12.3144 19.0325 12.7652 19.0324 13.216C19.0323 13.4849 19.0324 13.7537 19.0331 14.0226C19.0337 14.2756 19.0336 14.5285 19.033 14.7815C19.0329 14.874 19.033 14.9665 19.0334 15.059C19.0368 15.9454 18.9177 16.6466 18.2849 17.3144C17.6722 17.8945 16.9836 18.0497 16.1618 18.0356C16.0404 18.0344 15.919 18.0332 15.7976 18.032C15.7332 18.0312 15.6688 18.0304 15.6044 18.0296C15.4032 18.0272 15.2021 18.0262 15.001 18.0255C14.9669 18.0253 14.9328 18.0252 14.8976 18.0251C14.8278 18.0248 14.7581 18.0246 14.6883 18.0243C14.2209 18.0226 13.7535 18.0203 13.2862 18.0136C12.9698 18.009 12.6535 18.0069 12.3371 18.0074C12.1702 18.0076 12.0036 18.0066 11.8368 18.0028C11.1226 17.9868 10.5813 17.9942 10.0304 18.4884C9.97189 18.5446 9.91401 18.6014 9.857 18.6591C9.75865 18.7562 9.65129 18.8362 9.53835 18.9155C9.50596 18.9391 9.47357 18.9627 9.44021 18.9871C9.4086 19.01 9.377 19.0329 9.34444 19.0565C9.02611 19.2891 8.71121 19.5258 8.39815 19.7655C8.07295 20.0142 7.74623 20.2607 7.41671 20.5037C7.38039 20.5306 7.34408 20.5574 7.30666 20.585C7.20993 20.6561 7.11284 20.7267 7.01534 20.7967C6.98869 20.8159 6.96203 20.8351 6.93457 20.8548C6.72987 20.9974 6.60692 21.0311 6.35909 21.0311C6.18117 20.9388 6.09524 20.8697 5.98409 20.703C5.97282 20.5846 5.97282 20.5846 5.97345 20.4417C5.97345 20.3882 5.97346 20.3348 5.97347 20.2797C5.97395 20.2219 5.97444 20.1642 5.97493 20.1047C5.97507 20.0456 5.9752 19.9865 5.97534 19.9256C5.97577 19.7687 5.97661 19.6117 5.97765 19.4547C5.97861 19.2945 5.97904 19.1342 5.97951 18.974C5.98055 18.6597 5.98212 18.3454 5.98409 18.0311C5.93308 18.0318 5.88206 18.0325 5.8295 18.0333C5.63766 18.0359 5.44581 18.0375 5.25396 18.0388C5.1714 18.0395 5.08885 18.0405 5.00631 18.0417C4.13031 18.0544 3.37756 17.9359 2.71785 17.3038C2.23551 16.7873 1.99265 16.2731 1.99282 15.5672C1.99264 15.5269 1.99247 15.4865 1.99229 15.445C1.99178 15.3098 1.9916 15.1746 1.99142 15.0394C1.99112 14.9425 1.99081 14.8455 1.99048 14.7486C1.9895 14.4301 1.98901 14.1117 1.98855 13.7933C1.98836 13.6835 1.98816 13.5738 1.98797 13.464C1.98707 12.9482 1.98641 12.4324 1.98602 11.9166C1.98556 11.3219 1.98433 10.7273 1.98243 10.1326C1.98101 9.67256 1.98032 9.21248 1.98017 8.7524C1.98006 8.47784 1.97964 8.20328 1.97846 7.92873C1.97736 7.67017 1.97717 7.41163 1.97765 7.15308C1.97767 7.05855 1.97738 6.96401 1.97673 6.86948C1.97116 6.00486 2.09988 5.33411 2.71749 4.68049C3.28436 4.14336 3.9459 3.96154 4.70854 3.96168ZM3.344 5.55383C2.97406 6.03469 2.99733 6.57626 3.00064 7.15132C3.00032 7.2447 2.9999 7.33808 2.99939 7.43146C2.99833 7.68366 2.99874 7.93583 2.99948 8.18803C3.00008 8.45278 2.99952 8.71752 2.99916 8.98226C2.99873 9.42673 2.99929 9.87119 3.00041 10.3157C3.00168 10.8285 3.00127 11.3413 2.99998 11.8541C2.99892 12.2956 2.99877 12.737 2.99938 13.1784C2.99975 13.4416 2.9998 13.7047 2.99902 13.9679C2.99834 14.2153 2.99882 14.4628 3.00017 14.7103C3.00048 14.8007 3.00039 14.8912 2.99987 14.9817C2.99676 15.5777 3.02148 16.0903 3.44405 16.5545C3.90654 16.9704 4.45557 17.0133 5.05666 17.0126C5.15453 17.0136 5.2524 17.0146 5.35027 17.0156C5.50251 17.0166 5.65475 17.0174 5.80699 17.0177C5.95534 17.0181 6.10364 17.0197 6.25197 17.0214C6.29758 17.0212 6.34318 17.021 6.39017 17.0207C6.7052 17.0253 6.7052 17.0253 6.85504 17.1362C6.95232 17.2795 6.97474 17.3609 6.97809 17.5322C6.97949 17.5956 6.97949 17.5956 6.98092 17.6602C6.98171 17.7058 6.98249 17.7515 6.9833 17.7985C6.98427 17.8452 6.98524 17.8919 6.98625 17.94C6.98932 18.0895 6.99208 18.239 6.99483 18.3885C6.99686 18.4897 6.9989 18.5909 7.00097 18.6921C7.00599 18.9405 7.01076 19.1889 7.01534 19.4373C7.34457 19.2205 7.34457 19.2205 7.66243 18.9876C7.7009 18.9581 7.73937 18.9285 7.779 18.8981C7.81897 18.8672 7.85893 18.8363 7.90011 18.8045C8.32922 18.4753 8.76259 18.1526 9.1989 17.833C9.32032 17.7439 9.44145 17.6543 9.56252 17.5647C9.60348 17.5344 9.64444 17.5041 9.68664 17.4729C9.76555 17.4145 9.84443 17.3561 9.92326 17.2976C9.95854 17.2716 9.99382 17.2455 10.0302 17.2186C10.0613 17.1956 10.0925 17.1725 10.1246 17.1487C10.27 17.0462 10.3628 17.0406 10.5393 17.0399C10.5907 17.0396 10.6422 17.0393 10.6952 17.0389C10.7519 17.0388 10.8086 17.0387 10.867 17.0386C10.9584 17.0381 11.0498 17.0376 11.1412 17.0371C11.2397 17.0366 11.3382 17.0363 11.4366 17.0359C11.6422 17.0352 11.8477 17.0341 12.0532 17.0329C12.6377 17.0296 13.2222 17.0268 13.8068 17.0244C14.1294 17.023 14.4521 17.0214 14.7747 17.0194C14.9786 17.0181 15.1825 17.0173 15.3863 17.0167C15.5439 17.0162 15.7015 17.0151 15.859 17.014C15.9149 17.014 15.9708 17.014 16.0283 17.0139C16.6109 17.0089 17.1067 16.95 17.5536 16.5483C17.8952 16.1802 17.9912 15.7525 17.9907 15.2634C17.9908 15.2256 17.991 15.1879 17.9911 15.149C17.9915 15.0227 17.9916 14.8964 17.9916 14.77C17.9919 14.6794 17.9921 14.5888 17.9923 14.4981C17.993 14.2519 17.9933 14.0057 17.9935 13.7595C17.9936 13.6056 17.9938 13.4517 17.994 13.2977C17.9947 12.8158 17.9951 12.3339 17.9953 11.852C17.9955 11.2963 17.9963 10.7406 17.9977 10.1849C17.9987 9.75496 17.9992 9.32505 17.9992 8.89515C17.9993 8.63856 17.9996 8.38199 18.0004 8.12541C18.0012 7.88386 18.0013 7.64232 18.0009 7.40077C18.0008 7.3124 18.001 7.22403 18.0015 7.13565C18.0105 6.22968 18.0105 6.22968 17.5622 5.46858C17.0878 5.0443 16.5995 4.99258 15.9887 4.99356C15.9399 4.99345 15.8911 4.99335 15.8409 4.99324C15.6781 4.99294 15.5153 4.99298 15.3524 4.99302C15.2355 4.99288 15.1185 4.99272 15.0015 4.99254C14.7171 4.99217 14.4326 4.99202 14.1482 4.992C13.9169 4.99197 13.6855 4.99188 13.4542 4.99173C12.7976 4.99132 12.141 4.9911 11.4843 4.99114C11.4313 4.99114 11.4313 4.99114 11.3772 4.99114C11.3418 4.99114 11.3064 4.99114 11.2699 4.99115C10.6963 4.99117 10.1228 4.99072 9.54918 4.99006C8.95946 4.98938 8.36973 4.98906 7.78001 4.9891C7.44924 4.98912 7.11846 4.98899 6.78769 4.98848C6.47654 4.98801 6.1654 4.98803 5.85426 4.98837C5.74026 4.98841 5.62626 4.9883 5.51226 4.98802C5.35625 4.98766 5.20025 4.98788 5.04423 4.98824C4.99948 4.988 4.95473 4.98776 4.90862 4.98751C4.31343 4.99053 3.7579 5.09139 3.344 5.55383Z" fill="#002F34"/>
<path d="M4.70854 3.96168C4.75955 3.96151 4.81056 3.96133 4.86311 3.96116C5.0341 3.96064 5.20508 3.96046 5.37607 3.96028C5.49866 3.95999 5.62125 3.95967 5.74384 3.95935C6.11178 3.95842 6.47971 3.95795 6.84765 3.95753C7.02122 3.95733 7.19479 3.95707 7.36836 3.95683C7.94588 3.95603 8.5234 3.95535 9.10092 3.95501C9.25066 3.95492 9.4004 3.95483 9.55014 3.95474C9.60596 3.95471 9.60596 3.95471 9.66291 3.95467C10.265 3.95428 10.8671 3.9531 11.4691 3.95157C12.0882 3.95002 12.7074 3.94918 13.3265 3.94903C13.6737 3.94893 14.0209 3.94852 14.3681 3.94732C14.664 3.9463 14.9598 3.94593 15.2557 3.94638C15.4064 3.94659 15.557 3.94641 15.7077 3.9456C16.7092 3.94049 17.54 3.99739 18.3075 4.70924C18.8012 5.22598 19.031 5.83438 19.0276 6.54192C19.0277 6.5817 19.0279 6.62148 19.0281 6.66246C19.0286 6.79458 19.0284 6.92669 19.0282 7.05881C19.0284 7.15402 19.0287 7.24923 19.0289 7.34444C19.0296 7.60225 19.0296 7.86007 19.0295 8.11789C19.0294 8.3335 19.0297 8.54911 19.0299 8.76472C19.0304 9.27361 19.0304 9.78251 19.0301 10.2914C19.0299 10.8155 19.0304 11.3396 19.0314 11.8637C19.0323 12.3144 19.0325 12.7652 19.0324 13.216C19.0323 13.4849 19.0324 13.7537 19.0331 14.0226C19.0337 14.2756 19.0336 14.5285 19.033 14.7815C19.0329 14.874 19.033 14.9665 19.0334 15.059C19.0368 15.9454 18.9177 16.6466 18.2849 17.3144C17.6722 17.8945 16.9836 18.0497 16.1618 18.0356C16.0404 18.0344 15.919 18.0332 15.7976 18.032C15.7332 18.0312 15.6688 18.0304 15.6044 18.0296C15.4032 18.0272 15.2021 18.0262 15.001 18.0255C14.9669 18.0253 14.9328 18.0252 14.8976 18.0251C14.8278 18.0248 14.7581 18.0246 14.6883 18.0243C14.2209 18.0226 13.7535 18.0203 13.2862 18.0136C12.9698 18.009 12.6535 18.0069 12.3371 18.0074C12.1702 18.0076 12.0036 18.0066 11.8368 18.0028C11.1226 17.9868 10.5813 17.9942 10.0304 18.4884C9.97189 18.5446 9.91401 18.6014 9.857 18.6591C9.75865 18.7562 9.65129 18.8362 9.53835 18.9155C9.50596 18.9391 9.47357 18.9627 9.44021 18.9871C9.4086 19.01 9.377 19.0329 9.34444 19.0565C9.02611 19.2891 8.71121 19.5258 8.39815 19.7655C8.07295 20.0142 7.74623 20.2607 7.41671 20.5037C7.38039 20.5306 7.34408 20.5574 7.30666 20.585C7.20993 20.6561 7.11284 20.7267 7.01534 20.7967C6.98869 20.8159 6.96203 20.8351 6.93457 20.8548C6.72987 20.9974 6.60692 21.0311 6.35909 21.0311C6.18117 20.9388 6.09524 20.8697 5.98409 20.703C5.97282 20.5846 5.97282 20.5846 5.97345 20.4417C5.97345 20.3882 5.97346 20.3348 5.97347 20.2797C5.97395 20.2219 5.97444 20.1642 5.97493 20.1047C5.97507 20.0456 5.9752 19.9865 5.97534 19.9256C5.97577 19.7687 5.97661 19.6117 5.97765 19.4547C5.97861 19.2945 5.97904 19.1342 5.97951 18.974C5.98055 18.6597 5.98212 18.3454 5.98409 18.0311C5.93308 18.0318 5.88206 18.0325 5.8295 18.0333C5.63766 18.0359 5.44581 18.0375 5.25396 18.0388C5.1714 18.0395 5.08885 18.0405 5.00631 18.0417C4.13031 18.0544 3.37756 17.9359 2.71785 17.3038C2.23551 16.7873 1.99265 16.2731 1.99282 15.5672C1.99264 15.5269 1.99247 15.4865 1.99229 15.445C1.99178 15.3098 1.9916 15.1746 1.99142 15.0394C1.99112 14.9425 1.99081 14.8455 1.99048 14.7486C1.9895 14.4301 1.98901 14.1117 1.98855 13.7933C1.98836 13.6835 1.98816 13.5738 1.98797 13.464C1.98707 12.9482 1.98641 12.4324 1.98602 11.9166C1.98556 11.3219 1.98433 10.7273 1.98243 10.1326C1.98101 9.67256 1.98032 9.21248 1.98017 8.7524C1.98006 8.47784 1.97964 8.20328 1.97846 7.92873C1.97736 7.67017 1.97717 7.41163 1.97765 7.15308C1.97767 7.05855 1.97738 6.96401 1.97673 6.86948C1.97116 6.00486 2.09988 5.33411 2.71749 4.68049C3.28436 4.14336 3.9459 3.96154 4.70854 3.96168ZM3.344 5.55383C2.97406 6.03469 2.99733 6.57626 3.00064 7.15132C3.00032 7.2447 2.9999 7.33808 2.99939 7.43146C2.99833 7.68366 2.99874 7.93583 2.99948 8.18803C3.00008 8.45278 2.99952 8.71752 2.99916 8.98226C2.99873 9.42673 2.99929 9.87119 3.00041 10.3157C3.00168 10.8285 3.00127 11.3413 2.99998 11.8541C2.99892 12.2956 2.99877 12.737 2.99938 13.1784C2.99975 13.4416 2.9998 13.7047 2.99902 13.9679C2.99834 14.2153 2.99882 14.4628 3.00017 14.7103C3.00048 14.8007 3.00039 14.8912 2.99987 14.9817C2.99676 15.5777 3.02148 16.0903 3.44405 16.5545C3.90654 16.9704 4.45557 17.0133 5.05666 17.0126C5.15453 17.0136 5.2524 17.0146 5.35027 17.0156C5.50251 17.0166 5.65475 17.0174 5.80699 17.0177C5.95534 17.0181 6.10364 17.0197 6.25197 17.0214C6.29758 17.0212 6.34318 17.021 6.39017 17.0207C6.7052 17.0253 6.7052 17.0253 6.85504 17.1362C6.95232 17.2795 6.97474 17.3609 6.97809 17.5322C6.97949 17.5956 6.97949 17.5956 6.98092 17.6602C6.98171 17.7058 6.98249 17.7515 6.9833 17.7985C6.98427 17.8452 6.98524 17.8919 6.98625 17.94C6.98932 18.0895 6.99208 18.239 6.99483 18.3885C6.99686 18.4897 6.9989 18.5909 7.00097 18.6921C7.00599 18.9405 7.01076 19.1889 7.01534 19.4373C7.34457 19.2205 7.34457 19.2205 7.66243 18.9876C7.7009 18.9581 7.73937 18.9285 7.779 18.8981C7.81897 18.8672 7.85893 18.8363 7.90011 18.8045C8.32922 18.4753 8.76259 18.1526 9.1989 17.833C9.32032 17.7439 9.44145 17.6543 9.56252 17.5647C9.60348 17.5344 9.64444 17.5041 9.68664 17.4729C9.76555 17.4145 9.84443 17.3561 9.92326 17.2976C9.95854 17.2716 9.99382 17.2455 10.0302 17.2186C10.0613 17.1956 10.0925 17.1725 10.1246 17.1487C10.27 17.0462 10.3628 17.0406 10.5393 17.0399C10.5907 17.0396 10.6422 17.0393 10.6952 17.0389C10.7519 17.0388 10.8086 17.0387 10.867 17.0386C10.9584 17.0381 11.0498 17.0376 11.1412 17.0371C11.2397 17.0366 11.3382 17.0363 11.4366 17.0359C11.6422 17.0352 11.8477 17.0341 12.0532 17.0329C12.6377 17.0296 13.2222 17.0268 13.8068 17.0244C14.1294 17.023 14.4521 17.0214 14.7747 17.0194C14.9786 17.0181 15.1825 17.0173 15.3863 17.0167C15.5439 17.0162 15.7015 17.0151 15.859 17.014C15.9149 17.014 15.9708 17.014 16.0283 17.0139C16.6109 17.0089 17.1067 16.95 17.5536 16.5483C17.8952 16.1802 17.9912 15.7525 17.9907 15.2634C17.9908 15.2256 17.991 15.1879 17.9911 15.149C17.9915 15.0227 17.9916 14.8964 17.9916 14.77C17.9919 14.6794 17.9921 14.5888 17.9923 14.4981C17.993 14.2519 17.9933 14.0057 17.9935 13.7595C17.9936 13.6056 17.9938 13.4517 17.994 13.2977C17.9947 12.8158 17.9951 12.3339 17.9953 11.852C17.9955 11.2963 17.9963 10.7406 17.9977 10.1849C17.9987 9.75496 17.9992 9.32505 17.9992 8.89515C17.9993 8.63856 17.9996 8.38199 18.0004 8.12541C18.0012 7.88386 18.0013 7.64232 18.0009 7.40077C18.0008 7.3124 18.001 7.22403 18.0015 7.13565C18.0105 6.22968 18.0105 6.22968 17.5622 5.46858C17.0878 5.0443 16.5995 4.99258 15.9887 4.99356C15.9399 4.99345 15.8911 4.99335 15.8409 4.99324C15.6781 4.99294 15.5153 4.99298 15.3524 4.99302C15.2355 4.99288 15.1185 4.99272 15.0015 4.99254C14.7171 4.99217 14.4326 4.99202 14.1482 4.992C13.9169 4.99197 13.6855 4.99188 13.4542 4.99173C12.7976 4.99132 12.141 4.9911 11.4843 4.99114C11.4313 4.99114 11.4313 4.99114 11.3772 4.99114C11.3418 4.99114 11.3064 4.99114 11.2699 4.99115C10.6963 4.99117 10.1228 4.99072 9.54918 4.99006C8.95946 4.98938 8.36973 4.98906 7.78001 4.9891C7.44924 4.98912 7.11846 4.98899 6.78769 4.98848C6.47654 4.98801 6.1654 4.98803 5.85426 4.98837C5.74026 4.98841 5.62626 4.9883 5.51226 4.98802C5.35625 4.98766 5.20025 4.98788 5.04423 4.98824C4.99948 4.988 4.95473 4.98776 4.90862 4.98751C4.31343 4.99053 3.7579 5.09139 3.344 5.55383Z" stroke="#002F34" stroke-width="0.6" mask="url(#path-1-outside-1_945_10816)"/>
<mask id="path-2-outside-2_945_10816" maskUnits="userSpaceOnUse" x="8.82227" y="5.95215" width="16" height="19" fill="black">
<rect fill="white" x="8.82227" y="5.95215" width="16" height="19"/>
<path d="M20.7442 6.96109C20.7923 6.96074 20.7923 6.96074 20.8413 6.96038C20.9472 6.9597 21.053 6.95938 21.1588 6.95912C21.2134 6.95892 21.2134 6.95892 21.269 6.95872C21.4618 6.95801 20.6545 6.95758 20.8472 6.95738C21.045 6.95712 21.2427 6.956 21.4404 6.95466C21.5936 6.95378 20.7467 6.95354 20.8998 6.95347C20.9727 6.95333 21.0455 6.95296 21.1183 6.95234C21.9457 6.94579 22.6667 7.10637 23.282 7.69594C23.7644 8.21238 24.0072 8.72661 24.0071 9.43249C24.0072 9.47284 24.0074 9.51319 24.0076 9.55476C24.0081 9.68995 24.0083 9.82513 24.0085 9.96031C24.0087 10.0573 24.0091 10.1542 24.0094 10.2512C24.0104 10.5696 24.0109 10.888 24.0113 11.2064C24.0115 11.3162 24.0117 11.4259 24.0119 11.5357C24.0128 12.0515 24.0135 12.5673 24.0139 13.0831C24.0143 13.6778 24.0155 14.2724 24.0174 14.8671C24.0189 15.3272 24.0195 15.7872 24.0197 16.2473C24.0198 16.5219 24.0202 16.7964 24.0214 17.071C24.0225 17.3295 24.0227 17.5881 24.0222 17.8466C24.0222 17.9412 24.0225 18.0357 24.0231 18.1302C24.0287 18.9949 23.9 19.6656 23.2824 20.3192C22.7485 20.8251 22.105 21.0404 21.3799 21.0357C21.3408 21.0357 21.3016 21.0356 21.2613 21.0355C21.1371 21.0353 21.013 21.0347 20.8888 21.0341C20.8043 21.0338 20.7198 21.0336 20.6352 21.0334C20.4287 21.0329 20.2223 21.0321 20.0158 21.0311C20.0162 21.0641 20.0166 21.097 20.017 21.131C20.0208 21.442 20.0237 21.7531 20.0255 22.0641C20.0265 22.224 20.0278 22.3839 20.0299 22.5438C20.0324 22.7277 20.0333 22.9117 20.0341 23.0957C20.0351 23.1529 20.036 23.2101 20.037 23.2691C20.037 23.3226 20.0371 23.376 20.0371 23.4311C20.0375 23.4781 20.0379 23.525 20.0383 23.5734C20.0047 23.7669 19.8981 23.8825 19.7462 24.0018C19.5215 24.0643 19.3178 24.0131 19.1202 23.9035C19.0725 23.8673 19.0249 23.8311 18.9757 23.7938C18.9349 23.7633 18.9349 23.7633 18.8932 23.7322C18.798 23.6607 18.7038 23.5882 18.6095 23.5155C18.5329 23.4572 18.4562 23.3989 18.3795 23.3407C18.2544 23.2455 18.1293 23.1502 18.0045 23.0546C17.7318 22.8458 17.457 22.6403 17.1798 22.4374C16.7384 22.114 16.3032 21.7826 15.869 21.4496C15.8298 21.4198 15.7905 21.39 15.7502 21.3593C15.7141 21.325 15.7141 21.325 15.6773 21.2901C15.3955 21.0418 15.1483 21.0387 14.7836 21.044C14.696 21.0436 14.696 21.0436 14.6065 21.0432C14.48 21.0428 14.3536 21.0429 14.227 21.0439C14.0264 21.0455 13.8257 21.045 13.6251 21.0443C13.3071 21.0434 12.9892 21.0438 12.6712 21.0448C12.1032 21.0466 13.5353 21.0468 12.9673 21.0455C12.7685 21.0452 12.5697 21.0456 12.3709 21.0466C12.2171 21.0473 12.0632 21.047 11.9093 21.0469C11.8553 21.0475 11.8013 21.048 11.7456 21.0485C11.2568 21.0468 10.7515 20.9848 10.3146 20.7528C10.2705 20.7302 10.2264 20.7075 10.1809 20.6842C10.0049 20.5727 9.89481 20.4807 9.82828 20.2811C9.8109 20.0466 9.82365 19.9069 9.9689 19.7186C10.1605 19.5909 10.3062 19.5897 10.5314 19.6249C10.6583 19.6765 10.7749 19.7361 10.8941 19.8034C11.0787 19.9006 11.2408 19.9121 11.4479 19.9126C11.5009 19.9129 11.5538 19.9131 11.6084 19.9134C11.6663 19.9134 11.7242 19.9135 11.7839 19.9135C11.8778 19.9139 11.9716 19.9143 12.0655 19.9146C12.1663 19.915 12.2671 19.9153 12.368 19.9155C12.5784 19.916 12.7888 19.9169 12.9992 19.918C13.5975 19.9209 12.1958 19.9234 12.7941 19.925C13.1246 19.9258 13.4551 19.9272 13.7856 19.9291C13.9604 19.9301 14.1352 19.9308 14.3099 19.9309C14.505 19.931 14.7002 19.9322 14.8953 19.9335C14.9528 19.9334 15.0103 19.9332 15.0696 19.9331C15.4546 19.9368 15.7722 19.9765 16.0807 20.2279C16.1129 20.2536 16.1452 20.2794 16.1784 20.3059C16.2121 20.3335 16.2457 20.3611 16.2804 20.3895C16.3551 20.4492 16.4298 20.5087 16.5045 20.5681C16.5426 20.5984 16.5807 20.6287 16.6199 20.66C16.8005 20.8016 16.9856 20.937 17.1711 21.0722C17.5431 21.3441 17.9104 21.6217 18.276 21.9022C18.3341 21.9468 18.3341 21.9468 18.3935 21.9923C18.4273 22.0183 18.4612 22.0443 18.496 22.0711C18.6415 22.1801 18.7895 22.2853 18.9377 22.3905C18.9383 22.3293 18.939 22.268 18.9397 22.2049C18.9424 21.9773 18.9461 21.7498 18.95 21.5222C18.9515 21.4238 18.9528 21.3253 18.9539 21.2269C18.9555 21.0853 18.9579 20.9437 18.9605 20.8021C18.9608 20.7582 18.9611 20.7143 18.9615 20.669C18.9666 20.4409 18.9732 20.2765 19.1252 20.0936C19.3244 19.9608 19.4998 19.9473 19.7352 19.9464C19.7808 19.946 19.8263 19.9457 19.8732 19.9454C19.9463 19.9451 19.9463 19.9451 20.0209 19.9448C20.125 19.9437 20.2292 19.9426 20.3333 19.9414C20.4967 19.9397 20.6601 19.9384 20.8236 19.9377C20.9818 19.937 21.14 19.9351 21.2983 19.9331C21.3466 19.9331 21.395 19.9332 21.4448 19.9333C21.891 19.9259 22.2282 19.7905 22.5567 19.4876C22.8312 19.1706 22.929 18.8143 22.9292 18.405C22.9294 18.3662 22.9297 18.3274 22.9299 18.2875C22.9305 18.1571 22.9308 18.0267 22.9311 17.8963C22.9314 17.803 22.9318 17.7097 22.9322 17.6163C22.9335 17.3094 22.9342 17.0024 22.9348 16.6954C22.9351 16.5897 22.9354 16.4839 22.9356 16.3782C22.9366 15.9383 22.9375 15.4983 22.938 15.0583C22.9388 14.4283 22.9403 13.7982 22.943 13.1681C22.9448 12.7249 22.9457 12.2817 22.946 11.8385C22.9462 11.5739 22.9467 11.3093 22.9482 11.0448C22.9497 10.7955 22.9499 10.5464 22.9494 10.2972C22.9494 10.206 22.9498 10.1149 22.9506 10.0237C22.9556 9.44421 22.941 8.92451 22.5324 8.46864C22.0569 8.04746 21.4822 8.03332 20.8744 8.0339C20.7685 8.03395 20.6627 8.03333 20.5569 8.03254C20.2563 8.03039 20.9558 8.02922 20.6552 8.02891C20.4705 8.02868 21.2858 8.02754 21.101 8.02585C21.031 8.02539 20.9609 8.02528 20.8909 8.02553C20.793 8.02586 20.6953 8.02505 20.5975 8.02399C20.542 8.02386 20.4864 8.02372 20.4292 8.02359C20.2519 7.99515 20.1742 7.93673 20.047 7.81239C19.9652 7.64882 19.9732 7.47522 20.0002 7.29677C20.0725 7.15667 20.1636 7.04184 20.3162 6.98523C20.4597 6.96274 20.599 6.96189 20.7442 6.96109Z"/>
</mask>
<path d="M20.7442 6.96109C20.7923 6.96074 20.7923 6.96074 20.8413 6.96038C20.9472 6.9597 21.053 6.95938 21.1588 6.95912C21.2134 6.95892 21.2134 6.95892 21.269 6.95872C21.4618 6.95801 20.6545 6.95758 20.8472 6.95738C21.045 6.95712 21.2427 6.956 21.4404 6.95466C21.5936 6.95378 20.7467 6.95354 20.8998 6.95347C20.9727 6.95333 21.0455 6.95296 21.1183 6.95234C21.9457 6.94579 22.6667 7.10637 23.282 7.69594C23.7644 8.21238 24.0072 8.72661 24.0071 9.43249C24.0072 9.47284 24.0074 9.51319 24.0076 9.55476C24.0081 9.68995 24.0083 9.82513 24.0085 9.96031C24.0087 10.0573 24.0091 10.1542 24.0094 10.2512C24.0104 10.5696 24.0109 10.888 24.0113 11.2064C24.0115 11.3162 24.0117 11.4259 24.0119 11.5357C24.0128 12.0515 24.0135 12.5673 24.0139 13.0831C24.0143 13.6778 24.0155 14.2724 24.0174 14.8671C24.0189 15.3272 24.0195 15.7872 24.0197 16.2473C24.0198 16.5219 24.0202 16.7964 24.0214 17.071C24.0225 17.3295 24.0227 17.5881 24.0222 17.8466C24.0222 17.9412 24.0225 18.0357 24.0231 18.1302C24.0287 18.9949 23.9 19.6656 23.2824 20.3192C22.7485 20.8251 22.105 21.0404 21.3799 21.0357C21.3408 21.0357 21.3016 21.0356 21.2613 21.0355C21.1371 21.0353 21.013 21.0347 20.8888 21.0341C20.8043 21.0338 20.7198 21.0336 20.6352 21.0334C20.4287 21.0329 20.2223 21.0321 20.0158 21.0311C20.0162 21.0641 20.0166 21.097 20.017 21.131C20.0208 21.442 20.0237 21.7531 20.0255 22.0641C20.0265 22.224 20.0278 22.3839 20.0299 22.5438C20.0324 22.7277 20.0333 22.9117 20.0341 23.0957C20.0351 23.1529 20.036 23.2101 20.037 23.2691C20.037 23.3226 20.0371 23.376 20.0371 23.4311C20.0375 23.4781 20.0379 23.525 20.0383 23.5734C20.0047 23.7669 19.8981 23.8825 19.7462 24.0018C19.5215 24.0643 19.3178 24.0131 19.1202 23.9035C19.0725 23.8673 19.0249 23.8311 18.9757 23.7938C18.9349 23.7633 18.9349 23.7633 18.8932 23.7322C18.798 23.6607 18.7038 23.5882 18.6095 23.5155C18.5329 23.4572 18.4562 23.3989 18.3795 23.3407C18.2544 23.2455 18.1293 23.1502 18.0045 23.0546C17.7318 22.8458 17.457 22.6403 17.1798 22.4374C16.7384 22.114 16.3032 21.7826 15.869 21.4496C15.8298 21.4198 15.7905 21.39 15.7502 21.3593C15.7141 21.325 15.7141 21.325 15.6773 21.2901C15.3955 21.0418 15.1483 21.0387 14.7836 21.044C14.696 21.0436 14.696 21.0436 14.6065 21.0432C14.48 21.0428 14.3536 21.0429 14.227 21.0439C14.0264 21.0455 13.8257 21.045 13.6251 21.0443C13.3071 21.0434 12.9892 21.0438 12.6712 21.0448C12.1032 21.0466 13.5353 21.0468 12.9673 21.0455C12.7685 21.0452 12.5697 21.0456 12.3709 21.0466C12.2171 21.0473 12.0632 21.047 11.9093 21.0469C11.8553 21.0475 11.8013 21.048 11.7456 21.0485C11.2568 21.0468 10.7515 20.9848 10.3146 20.7528C10.2705 20.7302 10.2264 20.7075 10.1809 20.6842C10.0049 20.5727 9.89481 20.4807 9.82828 20.2811C9.8109 20.0466 9.82365 19.9069 9.9689 19.7186C10.1605 19.5909 10.3062 19.5897 10.5314 19.6249C10.6583 19.6765 10.7749 19.7361 10.8941 19.8034C11.0787 19.9006 11.2408 19.9121 11.4479 19.9126C11.5009 19.9129 11.5538 19.9131 11.6084 19.9134C11.6663 19.9134 11.7242 19.9135 11.7839 19.9135C11.8778 19.9139 11.9716 19.9143 12.0655 19.9146C12.1663 19.915 12.2671 19.9153 12.368 19.9155C12.5784 19.916 12.7888 19.9169 12.9992 19.918C13.5975 19.9209 12.1958 19.9234 12.7941 19.925C13.1246 19.9258 13.4551 19.9272 13.7856 19.9291C13.9604 19.9301 14.1352 19.9308 14.3099 19.9309C14.505 19.931 14.7002 19.9322 14.8953 19.9335C14.9528 19.9334 15.0103 19.9332 15.0696 19.9331C15.4546 19.9368 15.7722 19.9765 16.0807 20.2279C16.1129 20.2536 16.1452 20.2794 16.1784 20.3059C16.2121 20.3335 16.2457 20.3611 16.2804 20.3895C16.3551 20.4492 16.4298 20.5087 16.5045 20.5681C16.5426 20.5984 16.5807 20.6287 16.6199 20.66C16.8005 20.8016 16.9856 20.937 17.1711 21.0722C17.5431 21.3441 17.9104 21.6217 18.276 21.9022C18.3341 21.9468 18.3341 21.9468 18.3935 21.9923C18.4273 22.0183 18.4612 22.0443 18.496 22.0711C18.6415 22.1801 18.7895 22.2853 18.9377 22.3905C18.9383 22.3293 18.939 22.268 18.9397 22.2049C18.9424 21.9773 18.9461 21.7498 18.95 21.5222C18.9515 21.4238 18.9528 21.3253 18.9539 21.2269C18.9555 21.0853 18.9579 20.9437 18.9605 20.8021C18.9608 20.7582 18.9611 20.7143 18.9615 20.669C18.9666 20.4409 18.9732 20.2765 19.1252 20.0936C19.3244 19.9608 19.4998 19.9473 19.7352 19.9464C19.7808 19.946 19.8263 19.9457 19.8732 19.9454C19.9463 19.9451 19.9463 19.9451 20.0209 19.9448C20.125 19.9437 20.2292 19.9426 20.3333 19.9414C20.4967 19.9397 20.6601 19.9384 20.8236 19.9377C20.9818 19.937 21.14 19.9351 21.2983 19.9331C21.3466 19.9331 21.395 19.9332 21.4448 19.9333C21.891 19.9259 22.2282 19.7905 22.5567 19.4876C22.8312 19.1706 22.929 18.8143 22.9292 18.405C22.9294 18.3662 22.9297 18.3274 22.9299 18.2875C22.9305 18.1571 22.9308 18.0267 22.9311 17.8963C22.9314 17.803 22.9318 17.7097 22.9322 17.6163C22.9335 17.3094 22.9342 17.0024 22.9348 16.6954C22.9351 16.5897 22.9354 16.4839 22.9356 16.3782C22.9366 15.9383 22.9375 15.4983 22.938 15.0583C22.9388 14.4283 22.9403 13.7982 22.943 13.1681C22.9448 12.7249 22.9457 12.2817 22.946 11.8385C22.9462 11.5739 22.9467 11.3093 22.9482 11.0448C22.9497 10.7955 22.9499 10.5464 22.9494 10.2972C22.9494 10.206 22.9498 10.1149 22.9506 10.0237C22.9556 9.44421 22.941 8.92451 22.5324 8.46864C22.0569 8.04746 21.4822 8.03332 20.8744 8.0339C20.7685 8.03395 20.6627 8.03333 20.5569 8.03254C20.2563 8.03039 20.9558 8.02922 20.6552 8.02891C20.4705 8.02868 21.2858 8.02754 21.101 8.02585C21.031 8.02539 20.9609 8.02528 20.8909 8.02553C20.793 8.02586 20.6953 8.02505 20.5975 8.02399C20.542 8.02386 20.4864 8.02372 20.4292 8.02359C20.2519 7.99515 20.1742 7.93673 20.047 7.81239C19.9652 7.64882 19.9732 7.47522 20.0002 7.29677C20.0725 7.15667 20.1636 7.04184 20.3162 6.98523C20.4597 6.96274 20.599 6.96189 20.7442 6.96109Z" fill="#002F34"/>
<path d="M20.7442 6.96109C20.7923 6.96074 20.7923 6.96074 20.8413 6.96038C20.9472 6.9597 21.053 6.95938 21.1588 6.95912C21.2134 6.95892 21.2134 6.95892 21.269 6.95872C21.4618 6.95801 20.6545 6.95758 20.8472 6.95738C21.045 6.95712 21.2427 6.956 21.4404 6.95466C21.5936 6.95378 20.7467 6.95354 20.8998 6.95347C20.9727 6.95333 21.0455 6.95296 21.1183 6.95234C21.9457 6.94579 22.6667 7.10637 23.282 7.69594C23.7644 8.21238 24.0072 8.72661 24.0071 9.43249C24.0072 9.47284 24.0074 9.51319 24.0076 9.55476C24.0081 9.68995 24.0083 9.82513 24.0085 9.96031C24.0087 10.0573 24.0091 10.1542 24.0094 10.2512C24.0104 10.5696 24.0109 10.888 24.0113 11.2064C24.0115 11.3162 24.0117 11.4259 24.0119 11.5357C24.0128 12.0515 24.0135 12.5673 24.0139 13.0831C24.0143 13.6778 24.0155 14.2724 24.0174 14.8671C24.0189 15.3272 24.0195 15.7872 24.0197 16.2473C24.0198 16.5219 24.0202 16.7964 24.0214 17.071C24.0225 17.3295 24.0227 17.5881 24.0222 17.8466C24.0222 17.9412 24.0225 18.0357 24.0231 18.1302C24.0287 18.9949 23.9 19.6656 23.2824 20.3192C22.7485 20.8251 22.105 21.0404 21.3799 21.0357C21.3408 21.0357 21.3016 21.0356 21.2613 21.0355C21.1371 21.0353 21.013 21.0347 20.8888 21.0341C20.8043 21.0338 20.7198 21.0336 20.6352 21.0334C20.4287 21.0329 20.2223 21.0321 20.0158 21.0311C20.0162 21.0641 20.0166 21.097 20.017 21.131C20.0208 21.442 20.0237 21.7531 20.0255 22.0641C20.0265 22.224 20.0278 22.3839 20.0299 22.5438C20.0324 22.7277 20.0333 22.9117 20.0341 23.0957C20.0351 23.1529 20.036 23.2101 20.037 23.2691C20.037 23.3226 20.0371 23.376 20.0371 23.4311C20.0375 23.4781 20.0379 23.525 20.0383 23.5734C20.0047 23.7669 19.8981 23.8825 19.7462 24.0018C19.5215 24.0643 19.3178 24.0131 19.1202 23.9035C19.0725 23.8673 19.0249 23.8311 18.9757 23.7938C18.9349 23.7633 18.9349 23.7633 18.8932 23.7322C18.798 23.6607 18.7038 23.5882 18.6095 23.5155C18.5329 23.4572 18.4562 23.3989 18.3795 23.3407C18.2544 23.2455 18.1293 23.1502 18.0045 23.0546C17.7318 22.8458 17.457 22.6403 17.1798 22.4374C16.7384 22.114 16.3032 21.7826 15.869 21.4496C15.8298 21.4198 15.7905 21.39 15.7502 21.3593C15.7141 21.325 15.7141 21.325 15.6773 21.2901C15.3955 21.0418 15.1483 21.0387 14.7836 21.044C14.696 21.0436 14.696 21.0436 14.6065 21.0432C14.48 21.0428 14.3536 21.0429 14.227 21.0439C14.0264 21.0455 13.8257 21.045 13.6251 21.0443C13.3071 21.0434 12.9892 21.0438 12.6712 21.0448C12.1032 21.0466 13.5353 21.0468 12.9673 21.0455C12.7685 21.0452 12.5697 21.0456 12.3709 21.0466C12.2171 21.0473 12.0632 21.047 11.9093 21.0469C11.8553 21.0475 11.8013 21.048 11.7456 21.0485C11.2568 21.0468 10.7515 20.9848 10.3146 20.7528C10.2705 20.7302 10.2264 20.7075 10.1809 20.6842C10.0049 20.5727 9.89481 20.4807 9.82828 20.2811C9.8109 20.0466 9.82365 19.9069 9.9689 19.7186C10.1605 19.5909 10.3062 19.5897 10.5314 19.6249C10.6583 19.6765 10.7749 19.7361 10.8941 19.8034C11.0787 19.9006 11.2408 19.9121 11.4479 19.9126C11.5009 19.9129 11.5538 19.9131 11.6084 19.9134C11.6663 19.9134 11.7242 19.9135 11.7839 19.9135C11.8778 19.9139 11.9716 19.9143 12.0655 19.9146C12.1663 19.915 12.2671 19.9153 12.368 19.9155C12.5784 19.916 12.7888 19.9169 12.9992 19.918C13.5975 19.9209 12.1958 19.9234 12.7941 19.925C13.1246 19.9258 13.4551 19.9272 13.7856 19.9291C13.9604 19.9301 14.1352 19.9308 14.3099 19.9309C14.505 19.931 14.7002 19.9322 14.8953 19.9335C14.9528 19.9334 15.0103 19.9332 15.0696 19.9331C15.4546 19.9368 15.7722 19.9765 16.0807 20.2279C16.1129 20.2536 16.1452 20.2794 16.1784 20.3059C16.2121 20.3335 16.2457 20.3611 16.2804 20.3895C16.3551 20.4492 16.4298 20.5087 16.5045 20.5681C16.5426 20.5984 16.5807 20.6287 16.6199 20.66C16.8005 20.8016 16.9856 20.937 17.1711 21.0722C17.5431 21.3441 17.9104 21.6217 18.276 21.9022C18.3341 21.9468 18.3341 21.9468 18.3935 21.9923C18.4273 22.0183 18.4612 22.0443 18.496 22.0711C18.6415 22.1801 18.7895 22.2853 18.9377 22.3905C18.9383 22.3293 18.939 22.268 18.9397 22.2049C18.9424 21.9773 18.9461 21.7498 18.95 21.5222C18.9515 21.4238 18.9528 21.3253 18.9539 21.2269C18.9555 21.0853 18.9579 20.9437 18.9605 20.8021C18.9608 20.7582 18.9611 20.7143 18.9615 20.669C18.9666 20.4409 18.9732 20.2765 19.1252 20.0936C19.3244 19.9608 19.4998 19.9473 19.7352 19.9464C19.7808 19.946 19.8263 19.9457 19.8732 19.9454C19.9463 19.9451 19.9463 19.9451 20.0209 19.9448C20.125 19.9437 20.2292 19.9426 20.3333 19.9414C20.4967 19.9397 20.6601 19.9384 20.8236 19.9377C20.9818 19.937 21.14 19.9351 21.2983 19.9331C21.3466 19.9331 21.395 19.9332 21.4448 19.9333C21.891 19.9259 22.2282 19.7905 22.5567 19.4876C22.8312 19.1706 22.929 18.8143 22.9292 18.405C22.9294 18.3662 22.9297 18.3274 22.9299 18.2875C22.9305 18.1571 22.9308 18.0267 22.9311 17.8963C22.9314 17.803 22.9318 17.7097 22.9322 17.6163C22.9335 17.3094 22.9342 17.0024 22.9348 16.6954C22.9351 16.5897 22.9354 16.4839 22.9356 16.3782C22.9366 15.9383 22.9375 15.4983 22.938 15.0583C22.9388 14.4283 22.9403 13.7982 22.943 13.1681C22.9448 12.7249 22.9457 12.2817 22.946 11.8385C22.9462 11.5739 22.9467 11.3093 22.9482 11.0448C22.9497 10.7955 22.9499 10.5464 22.9494 10.2972C22.9494 10.206 22.9498 10.1149 22.9506 10.0237C22.9556 9.44421 22.941 8.92451 22.5324 8.46864C22.0569 8.04746 21.4822 8.03332 20.8744 8.0339C20.7685 8.03395 20.6627 8.03333 20.5569 8.03254C20.2563 8.03039 20.9558 8.02922 20.6552 8.02891C20.4705 8.02868 21.2858 8.02754 21.101 8.02585C21.031 8.02539 20.9609 8.02528 20.8909 8.02553C20.793 8.02586 20.6953 8.02505 20.5975 8.02399C20.542 8.02386 20.4864 8.02372 20.4292 8.02359C20.2519 7.99515 20.1742 7.93673 20.047 7.81239C19.9652 7.64882 19.9732 7.47522 20.0002 7.29677C20.0725 7.15667 20.1636 7.04184 20.3162 6.98523C20.4597 6.96274 20.599 6.96189 20.7442 6.96109Z" stroke="#002F34" stroke-width="0.6" mask="url(#path-2-outside-2_945_10816)"/>
<path d="M8.82715 11.0781V11.251C8.82715 11.5771 8.78125 11.8701 8.68945 12.1299C8.59961 12.3877 8.47168 12.6084 8.30566 12.792C8.13965 12.9736 7.94336 13.1133 7.7168 13.2109C7.49023 13.3066 7.24023 13.3545 6.9668 13.3545C6.69141 13.3545 6.43945 13.3066 6.21094 13.2109C5.98438 13.1133 5.78711 12.9736 5.61914 12.792C5.45312 12.6084 5.32422 12.3877 5.23242 12.1299C5.14258 11.8701 5.09766 11.5771 5.09766 11.251V11.0781C5.09766 10.752 5.14258 10.459 5.23242 10.1992C5.32422 9.93945 5.45215 9.71875 5.61621 9.53711C5.78223 9.35352 5.97852 9.21387 6.20508 9.11816C6.43359 9.02051 6.68555 8.97168 6.96094 8.97168C7.23438 8.97168 7.48438 9.02051 7.71094 9.11816C7.93945 9.21387 8.13672 9.35352 8.30273 9.53711C8.46875 9.71875 8.59766 9.93945 8.68945 10.1992C8.78125 10.459 8.82715 10.752 8.82715 11.0781ZM7.78418 11.251V11.0723C7.78418 10.8613 7.76562 10.6758 7.72852 10.5156C7.69336 10.3535 7.64062 10.2178 7.57031 10.1084C7.5 9.99902 7.41309 9.91699 7.30957 9.8623C7.20801 9.80566 7.0918 9.77734 6.96094 9.77734C6.82422 9.77734 6.70508 9.80566 6.60352 9.8623C6.50195 9.91699 6.41699 9.99902 6.34863 10.1084C6.28027 10.2178 6.22852 10.3535 6.19336 10.5156C6.16016 10.6758 6.14355 10.8613 6.14355 11.0723V11.251C6.14355 11.46 6.16016 11.6455 6.19336 11.8076C6.22852 11.9678 6.28027 12.1035 6.34863 12.2148C6.41895 12.3262 6.50488 12.4102 6.60645 12.4668C6.70996 12.5234 6.83008 12.5518 6.9668 12.5518C7.09766 12.5518 7.21387 12.5234 7.31543 12.4668C7.41699 12.4102 7.50195 12.3262 7.57031 12.2148C7.64062 12.1035 7.69336 11.9678 7.72852 11.8076C7.76562 11.6455 7.78418 11.46 7.78418 11.251ZM12.1787 12.5049V13.2959H10.0225V12.5049H12.1787ZM10.3887 9.03027V13.2959H9.36035V9.03027H10.3887ZM13.5059 9.03027L14.2031 10.4482L14.9004 9.03027H16.0723L14.8828 11.1455L16.1045 13.2959H14.9209L14.2031 11.8516L13.4854 13.2959H12.2988L13.5234 11.1455L12.3311 9.03027H13.5059Z" fill="#002F34"/>
</svg>
